<svg width="346" height="253" viewBox="0 0 346 253" fill="none" xmlns="http://www.w3.org/2000/svg">
<line x1="33.7649" y1="2.1818e-08" x2="33.7649" y2="61.0843" stroke="#e0e0e052"/>
<line x1="33.7649" y1="63.9719" x2="33.7649" y2="125.056" stroke="#e0e0e052"/>
<line x1="33.7649" y1="127.944" x2="33.7649" y2="189.028" stroke="#e0e0e052"/>
<line x1="33.7649" y1="191.916" x2="33.7649" y2="253" stroke="#e0e0e052"/>
<line y1="31.0417" x2="65.6399" y2="31.0417" stroke="#e0e0e052"/>
<line y1="95.0135" x2="65.6399" y2="95.0135" stroke="#e0e0e052"/>
<line y1="158.985" x2="65.6399" y2="158.985" stroke="#e0e0e052"/>
<line y1="222.958" x2="65.6399" y2="222.958" stroke="#e0e0e052"/>
<line x1="103.855" y1="2.1818e-08" x2="103.855" y2="61.0843" stroke="#e0e0e052"/>
<line x1="103.855" y1="63.9719" x2="103.855" y2="125.056" stroke="#e0e0e052"/>
<line x1="103.855" y1="127.944" x2="103.855" y2="189.028" stroke="#e0e0e052"/>
<line x1="103.855" y1="191.916" x2="103.855" y2="253" stroke="#e0e0e052"/>
<line x1="173.945" y1="2.1818e-08" x2="173.945" y2="61.0843" stroke="#e0e0e052"/>
<line x1="173.945" y1="63.9719" x2="173.945" y2="125.056" stroke="#e0e0e052"/>
<line x1="173.945" y1="127.944" x2="173.945" y2="189.028" stroke="#e0e0e052"/>
<line x1="173.945" y1="191.916" x2="173.945" y2="253" stroke="#e0e0e052"/>
<line x1="244.035" y1="2.1818e-08" x2="244.035" y2="61.0843" stroke="#e0e0e052"/>
<line x1="244.035" y1="63.9719" x2="244.035" y2="125.056" stroke="#e0e0e052"/>
<line x1="244.035" y1="127.944" x2="244.035" y2="189.028" stroke="#e0e0e052"/>
<line x1="244.035" y1="191.916" x2="244.035" y2="253" stroke="#e0e0e052"/>
<line x1="314.125" y1="2.1818e-08" x2="314.125" y2="61.0843" stroke="#e0e0e052"/>
<line x1="314.125" y1="63.9719" x2="314.125" y2="125.056" stroke="#e0e0e052"/>
<line x1="314.125" y1="127.944" x2="314.125" y2="189.028" stroke="#e0e0e052"/>
<line x1="314.125" y1="191.916" x2="314.125" y2="253" stroke="#e0e0e052"/>
<line x1="70.0901" y1="31.0417" x2="135.73" y2="31.0417" stroke="#e0e0e052"/>
<line x1="70.0901" y1="95.0135" x2="135.73" y2="95.0135" stroke="#e0e0e052"/>
<line x1="70.0901" y1="158.985" x2="135.73" y2="158.985" stroke="#e0e0e052"/>
<line x1="70.0901" y1="222.958" x2="135.73" y2="222.958" stroke="#e0e0e052"/>
<line x1="140.18" y1="31.0417" x2="205.82" y2="31.0417" stroke="#e0e0e052"/>
<line x1="140.18" y1="95.0135" x2="205.82" y2="95.0135" stroke="#e0e0e052"/>
<line x1="140.18" y1="158.985" x2="205.82" y2="158.985" stroke="#e0e0e052"/>
<line x1="140.18" y1="222.958" x2="205.82" y2="222.958" stroke="#e0e0e052"/>
<line x1="210.27" y1="31.0417" x2="275.91" y2="31.0417" stroke="#e0e0e052"/>
<line x1="210.27" y1="95.0135" x2="275.91" y2="95.0135" stroke="#e0e0e052"/>
<line x1="210.27" y1="158.985" x2="275.91" y2="158.985" stroke="#e0e0e052"/>
<line x1="210.27" y1="222.958" x2="275.91" y2="222.958" stroke="#e0e0e052"/>
<line x1="280.36" y1="31.0417" x2="346" y2="31.0417" stroke="#e0e0e052"/>
<line x1="280.36" y1="95.0135" x2="346" y2="95.0135" stroke="#e0e0e052"/>
<line x1="280.36" y1="158.985" x2="346" y2="158.985" stroke="#e0e0e052"/>
<line x1="280.36" y1="222.958" x2="346" y2="222.958" stroke="#e0e0e052"/>
</svg>
