<svg width="46" height="47" viewBox="0 0 46 47" fill="none" xmlns="http://www.w3.org/2000/svg">
<path d="M45.9758 23.9397C45.9758 22.0141 45.8193 20.609 45.4806 19.1518H23.4583V27.8428H36.3849C36.1244 30.0027 34.717 33.2553 31.5895 35.441L31.5457 35.732L38.5088 41.1178L38.9912 41.1658C43.4216 37.0804 45.9758 31.0695 45.9758 23.9397" fill="#4285F4"/>
<path d="M23.4584 46.8386C29.7914 46.8386 35.108 44.7568 38.9913 41.166L31.5897 35.4411C29.609 36.8202 26.9506 37.783 23.4584 37.783C17.2556 37.783 11.9911 33.6978 10.1145 28.0511L9.83941 28.0744L2.59908 33.6691L2.50439 33.9319C6.36154 41.5821 14.2844 46.8386 23.4584 46.8386Z" fill="#34A853"/>
<path d="M10.1144 28.0511C9.61922 26.5939 9.33265 25.0325 9.33265 23.4193C9.33265 21.8058 9.61922 20.2446 10.0883 18.7874L10.0752 18.4771L2.74419 12.7926L2.50433 12.9065C0.914621 16.0812 0.00244141 19.6462 0.00244141 23.4193C0.00244141 27.1924 0.914621 30.7572 2.50433 33.9318L10.1144 28.0511" fill="#FBBC05"/>
<path d="M23.4583 9.05539C27.8627 9.05539 30.8337 10.9549 32.5278 12.5424L39.1475 6.08901C35.082 2.31592 29.7913 0 23.4583 0C14.2844 0 6.36153 5.25629 2.50439 12.9065L10.0884 18.7874C11.9911 13.1408 17.2556 9.05539 23.4583 9.05539" fill="#EB4335"/>
</svg>
